<svg width="35" height="36" viewBox="0 0 35 36" fill="none" xmlns="http://www.w3.org/2000/svg">
<path d="M17.5 0.833252C19.7543 0.833252 21.9163 1.75512 23.5104 3.39607C25.1045 5.03701 26 7.26261 26 9.58325C26 11.9039 25.1045 14.1295 23.5104 15.7704C21.9163 17.4114 19.7543 18.3333 17.5 18.3333C15.2457 18.3333 13.0837 17.4114 11.4896 15.7704C9.89553 14.1295 9 11.9039 9 9.58325C9 7.26261 9.89553 5.03701 11.4896 3.39607C13.0837 1.75512 15.2457 0.833252 17.5 0.833252ZM17.5 22.7083C26.8925 22.7083 34.5 26.6239 34.5 31.4583V35.8333H0.5V31.4583C0.5 26.6239 8.1075 22.7083 17.5 22.7083Z" fill="#001058"/>
</svg>
