<svg width="24" height="24" viewBox="0 0 24 24" fill="none" xmlns="http://www.w3.org/2000/svg">
<path d="M12 14C13.1046 14 14 13.1046 14 12C14 10.8954 13.1046 10 12 10C10.8954 10 10 10.8954 10 12C10 13.1046 10.8954 14 12 14Z" fill="#001058" style="fill:#001058;fill:color(display-p3 0.0000 0.0627 0.3451);fill-opacity:1;"/>
<path d="M4.25 14C5.14 17.45 8.27 20 12 20C16.42 20 20 16.42 20 12C20 7.58 16.42 4 12 4C9.61 4 7.47 5.05 6 6.71L4 9" stroke="#001058" style="stroke:#001058;stroke:color(display-p3 0.0000 0.0627 0.3451);stroke-opacity:1;" stroke-width="2" stroke-linecap="round" stroke-linejoin="round"/>
<path d="M5.63 7.38L3.5 5.25V9.5H7.75L5.63 7.38Z" fill="#001058" stroke="#001058" style="fill:#001058;fill:color(display-p3 0.0000 0.0627 0.3451);fill-opacity:1;stroke:#001058;stroke:color(display-p3 0.0000 0.0627 0.3451);stroke-opacity:1;" stroke-linecap="round" stroke-linejoin="round"/>
</svg>
