<svg width="35" height="40" viewBox="0 0 35 40" fill="none" xmlns="http://www.w3.org/2000/svg">
<path d="M17.5 20C23.0234 20 27.5 15.5234 27.5 10C27.5 4.47656 23.0234 0 17.5 0C11.9766 0 7.5 4.47656 7.5 10C7.5 15.5234 11.9766 20 17.5 20ZM8.125 33.125C8.125 34.1641 8.96094 35 10 35C11.0391 35 11.875 34.1641 11.875 33.125C11.875 32.0859 11.0391 31.25 10 31.25C8.96094 31.25 8.125 32.0859 8.125 33.125ZM25 22.5469V26.375C27.8516 26.9531 30 29.4844 30 32.5V35.7578C30 36.3516 29.5781 36.8672 28.9922 36.9844L26.4766 37.4844C26.1406 37.5547 25.8125 37.3359 25.7422 36.9922L25.5 35.7656C25.4297 35.4297 25.6484 35.0937 25.9922 35.0312L27.5 34.7266V32.5C27.5 27.5938 20 27.4141 20 32.6484V34.7344L21.5078 35.0391C21.8437 35.1094 22.0625 35.4375 22 35.7734L21.7578 37C21.6875 37.3359 21.3594 37.5547 21.0234 37.4922L18.5859 37.1641C17.9687 37.0781 17.5078 36.5547 17.5078 35.9219V32.5C17.5078 29.4844 19.6563 26.9609 22.5078 26.375V22.8437C22.3359 22.8984 22.1641 22.9297 21.9922 22.9922C20.5859 23.4844 19.0781 23.7578 17.5078 23.7578C15.9375 23.7578 14.4297 23.4844 13.0234 22.9922C12.4453 22.7891 11.8594 22.6641 11.2578 22.5859V28.9609C13.0625 29.5 14.3828 31.1563 14.3828 33.1328C14.3828 35.5469 12.4219 37.5078 10.0078 37.5078C7.59375 37.5078 5.63281 35.5469 5.63281 33.1328C5.63281 31.1563 6.95312 29.5 8.75781 28.9609V22.6797C3.78906 23.5156 0 27.7969 0 33V36.5C0 38.4297 1.57031 40 3.5 40H31.5C33.4297 40 35 38.4297 35 36.5V33C35 27.375 30.5625 22.8203 25 22.5469Z" fill="#1A2A80"/>
</svg>
