<svg width="155" height="145" viewBox="0 0 155 145" fill="none" xmlns="http://www.w3.org/2000/svg">
<path d="M77.5 0C34.6875 0 0 32.4496 0 72.5C0 112.55 34.6875 145 77.5 145C120.312 145 155 112.55 155 72.5C155 32.4496 120.312 0 77.5 0ZM102.5 49.1129C108.031 49.1129 112.5 53.2933 112.5 58.4677C112.5 63.6421 108.031 67.8226 102.5 67.8226C96.9687 67.8226 92.5 63.6421 92.5 58.4677C92.5 53.2933 96.9687 49.1129 102.5 49.1129ZM47.5 119.274C39.2188 119.274 32.5 113.135 32.5 105.534C32.5 99.6875 41.4063 87.877 45.5 82.7903C46.5 81.5333 48.5 81.5333 49.5 82.7903C53.5937 87.877 62.5 99.6875 62.5 105.534C62.5 113.135 55.7812 119.274 47.5 119.274ZM52.5 67.8226C46.9687 67.8226 42.5 63.6421 42.5 58.4677C42.5 53.2933 46.9687 49.1129 52.5 49.1129C58.0313 49.1129 62.5 53.2933 62.5 58.4677C62.5 63.6421 58.0313 67.8226 52.5 67.8226ZM105.688 112.901C98.6875 105.067 88.4063 100.565 77.5 100.565C70.875 100.565 70.875 91.2097 77.5 91.2097C91.375 91.2097 104.469 96.9395 113.344 106.937C117.656 111.732 109.844 117.608 105.688 112.901Z" fill="#008cab"/>
</svg>
